<svg width="23" height="30" viewBox="0 0 23 30" fill="none" xmlns="http://www.w3.org/2000/svg">
<g clip-path="url(#clip0_5_8)">
<path d="M0.5 24.1878L0.681453 23.9338L9.26299 7.65059L9.28111 7.47819L5.49829 0.372466C5.1812 -0.222748 4.28889 -0.0722348 4.18496 0.59409L0.5 24.1878Z" fill="#FFC24A"/>
<path d="M0.606995 23.9942L0.744174 23.7266L9.23588 7.6139L5.46238 0.479286C5.14879 -0.109688 4.35238 0.0404825 4.24947 0.699799L0.606995 23.9942Z" fill="#FFA712"/>
<g filter="url(#filter0_i_5_8)">
<path d="M0.606995 23.9942L0.744174 23.7266L9.23588 7.6139L5.46238 0.479286C5.14879 -0.109688 4.35238 0.0404825 4.24947 0.699799L0.606995 23.9942Z" fill="black"/>
</g>
<path d="M12.0388 12.853L14.8555 9.96834L12.038 4.58971C11.7705 4.08057 11.0238 4.07903 10.7592 4.58971L9.25378 7.4604V7.70484L12.0387 12.853H12.0388Z" fill="#F4BD62"/>
<path d="M11.9887 12.7328L14.7271 9.92837L11.9887 4.7141C11.7287 4.21914 11.097 4.16726 10.8397 4.66367L9.32649 7.57897L9.28119 7.72803L11.9887 12.7328V12.7328Z" fill="#FFA50E"/>
<g filter="url(#filter1_i_5_8)">
<path d="M11.9887 12.7328L14.7271 9.92837L11.9887 4.7141C11.7287 4.21914 11.097 4.16726 10.8397 4.66367L9.32649 7.57897L9.28119 7.72803L11.9887 12.7328V12.7328Z" fill="black"/>
</g>
<path d="M0.5 24.1879L0.582222 24.1051L0.881026 23.9838L11.862 13.0436L12.0011 12.6649L9.2618 7.44489L0.5 24.1879Z" fill="#F6820C"/>
<path d="M12.3907 29.7052L22.3287 24.1627L19.4908 6.68453C19.402 6.1377 18.7311 5.92154 18.3397 6.31359L0.5 24.1879L10.381 29.7048C10.6882 29.8763 11.034 29.9663 11.3858 29.9664C11.7376 29.9665 12.0835 29.8766 12.3907 29.7052Z" fill="#FDE068"/>
<path d="M22.2396 24.1162L19.4232 6.77076C19.3352 6.22803 18.7772 6.0035 18.3888 6.39264L0.610229 24.1538L10.3828 29.6161C10.6876 29.7862 11.0308 29.8756 11.3799 29.8757C11.729 29.8758 12.0723 29.7866 12.3772 29.6166L22.2397 24.1161L22.2396 24.1162Z" fill="#FCCA3F"/>
<path d="M12.3907 29.5419C12.0835 29.7132 11.7376 29.8031 11.3859 29.803C11.0341 29.8029 10.6882 29.7129 10.3811 29.5414L0.57967 24.1038L0.500183 24.1878L10.3811 29.7048C10.6883 29.8762 11.0341 29.9663 11.3859 29.9664C11.7377 29.9664 12.0836 29.8765 12.3908 29.7052L22.3288 24.1627L22.3045 24.013L12.3908 29.5419L12.3907 29.5419Z" fill="#EEAB37"/>
</g>
<defs>
<filter id="filter0_i_5_8" x="0.606995" y="0.111206" width="8.62891" height="23.883" filterUnits="userSpaceOnUse" color-interpolation-filters="sRGB">
<feFlood flood-opacity="0" result="BackgroundImageFix"/>
<feBlend mode="normal" in="SourceGraphic" in2="BackgroundImageFix" result="shape"/>
<feColorMatrix in="SourceAlpha" type="matrix" values="0 0 0 0 0 0 0 0 0 0 0 0 0 0 0 0 0 0 127 0" result="hardAlpha"/>
<feOffset/>
<feGaussianBlur stdDeviation="1.49573"/>
<feComposite in2="hardAlpha" operator="arithmetic" k2="-1" k3="1"/>
<feColorMatrix type="matrix" values="0 0 0 0 0 0 0 0 0 0 0 0 0 0 0 0 0 0 0.06 0"/>
<feBlend mode="normal" in2="shape" result="effect1_innerShadow_5_8"/>
</filter>
<filter id="filter1_i_5_8" x="9.28119" y="3.71784" width="5.53139" height="9.01498" filterUnits="userSpaceOnUse" color-interpolation-filters="sRGB">
<feFlood flood-opacity="0" result="BackgroundImageFix"/>
<feBlend mode="normal" in="SourceGraphic" in2="BackgroundImageFix" result="shape"/>
<feColorMatrix in="SourceAlpha" type="matrix" values="0 0 0 0 0 0 0 0 0 0 0 0 0 0 0 0 0 0 127 0" result="hardAlpha"/>
<feOffset dx="0.0854701" dy="-0.769231"/>
<feGaussianBlur stdDeviation="0.299145"/>
<feComposite in2="hardAlpha" operator="arithmetic" k2="-1" k3="1"/>
<feColorMatrix type="matrix" values="0 0 0 0 0 0 0 0 0 0 0 0 0 0 0 0 0 0 0.09 0"/>
<feBlend mode="normal" in2="shape" result="effect1_innerShadow_5_8"/>
</filter>
<clipPath id="clip0_5_8">
<rect width="21.8803" height="30" fill="white" transform="translate(0.5)"/>
</clipPath>
</defs>
</svg>
